<svg xmlns="http://www.w3.org/2000/svg" class="diagram" width="488" height="432" version="1.1"><g transform="translate(8 16)">
<path style="fill:none;stroke:#000;" d="M 64 80 L 64 144" />
<path style="fill:none;stroke:#000;" d="M 64 224 L 64 288" />
<path style="fill:none;stroke:#000;" d="M 264 80 L 264 144" />
<path style="fill:none;stroke:#000;" d="M 264 224 L 264 288" />
<polygon style="fill:#000" transform="rotate(90 264 288)" points="272,288 260,282.4 260,293.6" />
<polygon style="fill:#000" transform="rotate(90 264 144)" points="272,144 260,138.4 260,149.6" />
<polygon style="fill:#000" transform="rotate(90 64 288)" points="72,288 60,282.4 60,293.6" />
<polygon style="fill:#000" transform="rotate(90 64 144)" points="72,144 60,138.4 60,149.6" />
<g transform="translate(0)"><text style="fill:#000" text-anchor="middle" x="0" y="20">1</text><text style="fill:#000" text-anchor="middle" x="32" y="20">[</text><text style="fill:#000" text-anchor="middle" x="40" y="20">i</text><text style="fill:#000" text-anchor="middle" x="48" y="20">,</text><text style="fill:#000" text-anchor="middle" x="64" y="20">r</text><text style="fill:#000" text-anchor="middle" x="72" y="20">o</text><text style="fill:#000" text-anchor="middle" x="80" y="20">d</text><text style="fill:#000" text-anchor="middle" x="88" y="20">e</text><text style="fill:#000" text-anchor="middle" x="96" y="20">,</text><text style="fill:#000" text-anchor="middle" x="112" y="20">m</text><text style="fill:#000" text-anchor="middle" x="120" y="20">y</text><text style="fill:#000" text-anchor="middle" x="128" y="20">,</text><text style="fill:#000" text-anchor="middle" x="144" y="20">h</text><text style="fill:#000" text-anchor="middle" x="152" y="20">o</text><text style="fill:#000" text-anchor="middle" x="160" y="20">r</text><text style="fill:#000" text-anchor="middle" x="168" y="20">s</text><text style="fill:#000" text-anchor="middle" x="176" y="20">e</text><text style="fill:#000" text-anchor="middle" x="184" y="20">,</text><text style="fill:#000" text-anchor="middle" x="200" y="20">t</text><text style="fill:#000" text-anchor="middle" x="208" y="20">o</text><text style="fill:#000" text-anchor="middle" x="216" y="20">,</text><text style="fill:#000" text-anchor="middle" x="232" y="20">b</text><text style="fill:#000" text-anchor="middle" x="240" y="20">e</text><text style="fill:#000" text-anchor="middle" x="248" y="20">r</text><text style="fill:#000" text-anchor="middle" x="256" y="20">l</text><text style="fill:#000" text-anchor="middle" x="264" y="20">i</text><text style="fill:#000" text-anchor="middle" x="272" y="20">n</text><text style="fill:#000" text-anchor="middle" x="280" y="20">]</text><text style="fill:#000" text-anchor="middle" x="0" y="52">2</text><text style="fill:#000" text-anchor="middle" x="32" y="52">[</text><text style="fill:#000" text-anchor="middle" x="40" y="52">y</text><text style="fill:#000" text-anchor="middle" x="48" y="52">o</text><text style="fill:#000" text-anchor="middle" x="56" y="52">u</text><text style="fill:#000" text-anchor="middle" x="64" y="52">,</text><text style="fill:#000" text-anchor="middle" x="80" y="52">r</text><text style="fill:#000" text-anchor="middle" x="88" y="52">o</text><text style="fill:#000" text-anchor="middle" x="96" y="52">d</text><text style="fill:#000" text-anchor="middle" x="104" y="52">e</text><text style="fill:#000" text-anchor="middle" x="112" y="52">,</text><text style="fill:#000" text-anchor="middle" x="128" y="52">m</text><text style="fill:#000" text-anchor="middle" x="136" y="52">y</text><text style="fill:#000" text-anchor="middle" x="144" y="52">,</text><text style="fill:#000" text-anchor="middle" x="160" y="52">h</text><text style="fill:#000" text-anchor="middle" x="168" y="52">o</text><text style="fill:#000" text-anchor="middle" x="176" y="52">r</text><text style="fill:#000" text-anchor="middle" x="184" y="52">s</text><text style="fill:#000" text-anchor="middle" x="192" y="52">e</text><text style="fill:#000" text-anchor="middle" x="200" y="52">,</text><text style="fill:#000" text-anchor="middle" x="216" y="52">t</text><text style="fill:#000" text-anchor="middle" x="224" y="52">o</text><text style="fill:#000" text-anchor="middle" x="232" y="52">,</text><text style="fill:#000" text-anchor="middle" x="248" y="52">b</text><text style="fill:#000" text-anchor="middle" x="256" y="52">e</text><text style="fill:#000" text-anchor="middle" x="264" y="52">r</text><text style="fill:#000" text-anchor="middle" x="272" y="52">l</text><text style="fill:#000" text-anchor="middle" x="280" y="52">i</text><text style="fill:#000" text-anchor="middle" x="288" y="52">n</text><text style="fill:#000" text-anchor="middle" x="296" y="52">,</text><text style="fill:#000" text-anchor="middle" x="312" y="52">i</text><text style="fill:#000" text-anchor="middle" x="320" y="52">n</text><text style="fill:#000" text-anchor="middle" x="328" y="52">,</text><text style="fill:#000" text-anchor="middle" x="344" y="52">t</text><text style="fill:#000" text-anchor="middle" x="352" y="52">h</text><text style="fill:#000" text-anchor="middle" x="360" y="52">e</text><text style="fill:#000" text-anchor="middle" x="368" y="52">,</text><text style="fill:#000" text-anchor="middle" x="384" y="52">w</text><text style="fill:#000" text-anchor="middle" x="392" y="52">i</text><text style="fill:#000" text-anchor="middle" x="400" y="52">n</text><text style="fill:#000" text-anchor="middle" x="408" y="52">t</text><text style="fill:#000" text-anchor="middle" x="416" y="52">e</text><text style="fill:#000" text-anchor="middle" x="424" y="52">r</text><text style="fill:#000" text-anchor="middle" x="432" y="52">]</text><text style="fill:#000" text-anchor="middle" x="104" y="116">U</text><text style="fill:#000" text-anchor="middle" x="112" y="116">n</text><text style="fill:#000" text-anchor="middle" x="120" y="116">i</text><text style="fill:#000" text-anchor="middle" x="128" y="116">q</text><text style="fill:#000" text-anchor="middle" x="136" y="116">u</text><text style="fill:#000" text-anchor="middle" x="144" y="116">e</text><text style="fill:#000" text-anchor="middle" x="160" y="116">w</text><text style="fill:#000" text-anchor="middle" x="168" y="116">o</text><text style="fill:#000" text-anchor="middle" x="176" y="116">r</text><text style="fill:#000" text-anchor="middle" x="184" y="116">d</text><text style="fill:#000" text-anchor="middle" x="192" y="116">s</text><text style="fill:#000" text-anchor="middle" x="32" y="196">[</text><text style="fill:#000" text-anchor="middle" x="40" y="196">i</text><text style="fill:#000" text-anchor="middle" x="48" y="196">,</text><text style="fill:#000" text-anchor="middle" x="64" y="196">r</text><text style="fill:#000" text-anchor="middle" x="72" y="196">o</text><text style="fill:#000" text-anchor="middle" x="80" y="196">d</text><text style="fill:#000" text-anchor="middle" x="88" y="196">e</text><text style="fill:#000" text-anchor="middle" x="96" y="196">,</text><text style="fill:#000" text-anchor="middle" x="112" y="196">m</text><text style="fill:#000" text-anchor="middle" x="120" y="196">y</text><text style="fill:#000" text-anchor="middle" x="128" y="196">,</text><text style="fill:#000" text-anchor="middle" x="144" y="196">h</text><text style="fill:#000" text-anchor="middle" x="152" y="196">o</text><text style="fill:#000" text-anchor="middle" x="160" y="196">r</text><text style="fill:#000" text-anchor="middle" x="168" y="196">s</text><text style="fill:#000" text-anchor="middle" x="176" y="196">e</text><text style="fill:#000" text-anchor="middle" x="184" y="196">,</text><text style="fill:#000" text-anchor="middle" x="200" y="196">t</text><text style="fill:#000" text-anchor="middle" x="208" y="196">o</text><text style="fill:#000" text-anchor="middle" x="216" y="196">,</text><text style="fill:#000" text-anchor="middle" x="232" y="196">b</text><text style="fill:#000" text-anchor="middle" x="240" y="196">e</text><text style="fill:#000" text-anchor="middle" x="248" y="196">r</text><text style="fill:#000" text-anchor="middle" x="256" y="196">l</text><text style="fill:#000" text-anchor="middle" x="264" y="196">i</text><text style="fill:#000" text-anchor="middle" x="272" y="196">n</text><text style="fill:#000" text-anchor="middle" x="280" y="196">,</text><text style="fill:#000" text-anchor="middle" x="296" y="196">i</text><text style="fill:#000" text-anchor="middle" x="304" y="196">n</text><text style="fill:#000" text-anchor="middle" x="312" y="196">,</text><text style="fill:#000" text-anchor="middle" x="328" y="196">t</text><text style="fill:#000" text-anchor="middle" x="336" y="196">h</text><text style="fill:#000" text-anchor="middle" x="344" y="196">e</text><text style="fill:#000" text-anchor="middle" x="352" y="196">,</text><text style="fill:#000" text-anchor="middle" x="368" y="196">w</text><text style="fill:#000" text-anchor="middle" x="376" y="196">i</text><text style="fill:#000" text-anchor="middle" x="384" y="196">n</text><text style="fill:#000" text-anchor="middle" x="392" y="196">t</text><text style="fill:#000" text-anchor="middle" x="400" y="196">e</text><text style="fill:#000" text-anchor="middle" x="408" y="196">r</text><text style="fill:#000" text-anchor="middle" x="416" y="196">,</text><text style="fill:#000" text-anchor="middle" x="432" y="196">y</text><text style="fill:#000" text-anchor="middle" x="440" y="196">o</text><text style="fill:#000" text-anchor="middle" x="448" y="196">u</text><text style="fill:#000" text-anchor="middle" x="456" y="196">]</text><text style="fill:#000" text-anchor="middle" x="112" y="260">C</text><text style="fill:#000" text-anchor="middle" x="120" y="260">o</text><text style="fill:#000" text-anchor="middle" x="128" y="260">n</text><text style="fill:#000" text-anchor="middle" x="136" y="260">s</text><text style="fill:#000" text-anchor="middle" x="144" y="260">t</text><text style="fill:#000" text-anchor="middle" x="152" y="260">r</text><text style="fill:#000" text-anchor="middle" x="160" y="260">u</text><text style="fill:#000" text-anchor="middle" x="168" y="260">c</text><text style="fill:#000" text-anchor="middle" x="176" y="260">t</text><text style="fill:#000" text-anchor="middle" x="192" y="260">m</text><text style="fill:#000" text-anchor="middle" x="200" y="260">a</text><text style="fill:#000" text-anchor="middle" x="208" y="260">t</text><text style="fill:#000" text-anchor="middle" x="216" y="260">r</text><text style="fill:#000" text-anchor="middle" x="224" y="260">i</text><text style="fill:#000" text-anchor="middle" x="232" y="260">x</text><text style="fill:#000" text-anchor="middle" x="64" y="324">i</text><text style="fill:#000" text-anchor="middle" x="88" y="324">y</text><text style="fill:#000" text-anchor="middle" x="96" y="324">o</text><text style="fill:#000" text-anchor="middle" x="104" y="324">u</text><text style="fill:#000" text-anchor="middle" x="128" y="324">r</text><text style="fill:#000" text-anchor="middle" x="136" y="324">o</text><text style="fill:#000" text-anchor="middle" x="144" y="324">d</text><text style="fill:#000" text-anchor="middle" x="152" y="324">e</text><text style="fill:#000" text-anchor="middle" x="176" y="324">m</text><text style="fill:#000" text-anchor="middle" x="184" y="324">y</text><text style="fill:#000" text-anchor="middle" x="208" y="324">h</text><text style="fill:#000" text-anchor="middle" x="216" y="324">o</text><text style="fill:#000" text-anchor="middle" x="224" y="324">r</text><text style="fill:#000" text-anchor="middle" x="232" y="324">s</text><text style="fill:#000" text-anchor="middle" x="240" y="324">e</text><text style="fill:#000" text-anchor="middle" x="264" y="324">t</text><text style="fill:#000" text-anchor="middle" x="272" y="324">o</text><text style="fill:#000" text-anchor="middle" x="296" y="324">b</text><text style="fill:#000" text-anchor="middle" x="304" y="324">e</text><text style="fill:#000" text-anchor="middle" x="312" y="324">r</text><text style="fill:#000" text-anchor="middle" x="320" y="324">l</text><text style="fill:#000" text-anchor="middle" x="328" y="324">i</text><text style="fill:#000" text-anchor="middle" x="336" y="324">n</text><text style="fill:#000" text-anchor="middle" x="360" y="324">i</text><text style="fill:#000" text-anchor="middle" x="368" y="324">n</text><text style="fill:#000" text-anchor="middle" x="392" y="324">t</text><text style="fill:#000" text-anchor="middle" x="400" y="324">h</text><text style="fill:#000" text-anchor="middle" x="408" y="324">e</text><text style="fill:#000" text-anchor="middle" x="432" y="324">w</text><text style="fill:#000" text-anchor="middle" x="440" y="324">i</text><text style="fill:#000" text-anchor="middle" x="448" y="324">n</text><text style="fill:#000" text-anchor="middle" x="456" y="324">t</text><text style="fill:#000" text-anchor="middle" x="464" y="324">e</text><text style="fill:#000" text-anchor="middle" x="472" y="324">r</text><text style="fill:#000" text-anchor="middle" x="32" y="356">1</text><text style="fill:#000" text-anchor="middle" x="64" y="356">0</text><text style="fill:#000" text-anchor="middle" x="88" y="356">0</text><text style="fill:#000" text-anchor="middle" x="128" y="356">0</text><text style="fill:#000" text-anchor="middle" x="176" y="356">0</text><text style="fill:#000" text-anchor="middle" x="208" y="356">0</text><text style="fill:#000" text-anchor="middle" x="264" y="356">0</text><text style="fill:#000" text-anchor="middle" x="296" y="356">0</text><text style="fill:#000" text-anchor="middle" x="360" y="356">0</text><text style="fill:#000" text-anchor="middle" x="392" y="356">0</text><text style="fill:#000" text-anchor="middle" x="432" y="356">0</text><text style="fill:#000" text-anchor="middle" x="32" y="388">2</text><text style="fill:#000" text-anchor="middle" x="64" y="388">0</text><text style="fill:#000" text-anchor="middle" x="88" y="388">0</text><text style="fill:#000" text-anchor="middle" x="128" y="388">0</text><text style="fill:#000" text-anchor="middle" x="176" y="388">0</text><text style="fill:#000" text-anchor="middle" x="208" y="388">0</text><text style="fill:#000" text-anchor="middle" x="264" y="388">0</text><text style="fill:#000" text-anchor="middle" x="296" y="388">0</text><text style="fill:#000" text-anchor="middle" x="360" y="388">0</text><text style="fill:#000" text-anchor="middle" x="392" y="388">0</text><text style="fill:#000" text-anchor="middle" x="432" y="388">0</text></g></g></svg>