<svg xmlns="http://www.w3.org/2000/svg" class="diagram" width="456" height="336" version="1.1"><g transform="translate(8 16)">
<path style="fill:none;stroke:#000;" d="M 56 128 L 56 192" />
<path style="fill:none;stroke:#000;" d="M 280 128 L 280 192" />
<polygon style="fill:#000" transform="rotate(90 280 192)" points="288,192 276,186.4 276,197.6" />
<polygon style="fill:#000" transform="rotate(90 56 192)" points="64,192 52,186.4 52,197.6" />
<g transform="translate(0)"><text style="fill:#000" text-anchor="middle" x="0" y="20">M</text><text style="fill:#000" text-anchor="middle" x="8" y="20">a</text><text style="fill:#000" text-anchor="middle" x="16" y="20">t</text><text style="fill:#000" text-anchor="middle" x="24" y="20">r</text><text style="fill:#000" text-anchor="middle" x="32" y="20">i</text><text style="fill:#000" text-anchor="middle" x="40" y="20">x</text><text style="fill:#000" text-anchor="middle" x="32" y="36">i</text><text style="fill:#000" text-anchor="middle" x="56" y="36">y</text><text style="fill:#000" text-anchor="middle" x="64" y="36">o</text><text style="fill:#000" text-anchor="middle" x="72" y="36">u</text><text style="fill:#000" text-anchor="middle" x="96" y="36">r</text><text style="fill:#000" text-anchor="middle" x="104" y="36">o</text><text style="fill:#000" text-anchor="middle" x="112" y="36">d</text><text style="fill:#000" text-anchor="middle" x="120" y="36">e</text><text style="fill:#000" text-anchor="middle" x="144" y="36">m</text><text style="fill:#000" text-anchor="middle" x="152" y="36">y</text><text style="fill:#000" text-anchor="middle" x="176" y="36">h</text><text style="fill:#000" text-anchor="middle" x="184" y="36">o</text><text style="fill:#000" text-anchor="middle" x="192" y="36">r</text><text style="fill:#000" text-anchor="middle" x="200" y="36">s</text><text style="fill:#000" text-anchor="middle" x="208" y="36">e</text><text style="fill:#000" text-anchor="middle" x="232" y="36">t</text><text style="fill:#000" text-anchor="middle" x="240" y="36">o</text><text style="fill:#000" text-anchor="middle" x="264" y="36">b</text><text style="fill:#000" text-anchor="middle" x="272" y="36">e</text><text style="fill:#000" text-anchor="middle" x="280" y="36">r</text><text style="fill:#000" text-anchor="middle" x="288" y="36">l</text><text style="fill:#000" text-anchor="middle" x="296" y="36">i</text><text style="fill:#000" text-anchor="middle" x="304" y="36">n</text><text style="fill:#000" text-anchor="middle" x="328" y="36">i</text><text style="fill:#000" text-anchor="middle" x="336" y="36">n</text><text style="fill:#000" text-anchor="middle" x="360" y="36">t</text><text style="fill:#000" text-anchor="middle" x="368" y="36">h</text><text style="fill:#000" text-anchor="middle" x="376" y="36">e</text><text style="fill:#000" text-anchor="middle" x="400" y="36">w</text><text style="fill:#000" text-anchor="middle" x="408" y="36">i</text><text style="fill:#000" text-anchor="middle" x="416" y="36">n</text><text style="fill:#000" text-anchor="middle" x="424" y="36">t</text><text style="fill:#000" text-anchor="middle" x="432" y="36">e</text><text style="fill:#000" text-anchor="middle" x="440" y="36">r</text><text style="fill:#000" text-anchor="middle" x="0" y="68">1</text><text style="fill:#000" text-anchor="middle" x="32" y="68">0</text><text style="fill:#000" text-anchor="middle" x="56" y="68">0</text><text style="fill:#000" text-anchor="middle" x="96" y="68">0</text><text style="fill:#000" text-anchor="middle" x="144" y="68">0</text><text style="fill:#000" text-anchor="middle" x="176" y="68">0</text><text style="fill:#000" text-anchor="middle" x="232" y="68">0</text><text style="fill:#000" text-anchor="middle" x="264" y="68">0</text><text style="fill:#000" text-anchor="middle" x="328" y="68">0</text><text style="fill:#000" text-anchor="middle" x="360" y="68">0</text><text style="fill:#000" text-anchor="middle" x="400" y="68">0</text><text style="fill:#000" text-anchor="middle" x="0" y="100">2</text><text style="fill:#000" text-anchor="middle" x="32" y="100">0</text><text style="fill:#000" text-anchor="middle" x="56" y="100">0</text><text style="fill:#000" text-anchor="middle" x="96" y="100">0</text><text style="fill:#000" text-anchor="middle" x="144" y="100">0</text><text style="fill:#000" text-anchor="middle" x="176" y="100">0</text><text style="fill:#000" text-anchor="middle" x="232" y="100">0</text><text style="fill:#000" text-anchor="middle" x="264" y="100">0</text><text style="fill:#000" text-anchor="middle" x="328" y="100">0</text><text style="fill:#000" text-anchor="middle" x="360" y="100">0</text><text style="fill:#000" text-anchor="middle" x="400" y="100">0</text><text style="fill:#000" text-anchor="middle" x="104" y="148">C</text><text style="fill:#000" text-anchor="middle" x="112" y="148">o</text><text style="fill:#000" text-anchor="middle" x="120" y="148">u</text><text style="fill:#000" text-anchor="middle" x="128" y="148">n</text><text style="fill:#000" text-anchor="middle" x="136" y="148">t</text><text style="fill:#000" text-anchor="middle" x="152" y="148">t</text><text style="fill:#000" text-anchor="middle" x="160" y="148">o</text><text style="fill:#000" text-anchor="middle" x="168" y="148">k</text><text style="fill:#000" text-anchor="middle" x="176" y="148">e</text><text style="fill:#000" text-anchor="middle" x="184" y="148">n</text><text style="fill:#000" text-anchor="middle" x="192" y="148">s</text><text style="fill:#000" text-anchor="middle" x="32" y="212">i</text><text style="fill:#000" text-anchor="middle" x="56" y="212">y</text><text style="fill:#000" text-anchor="middle" x="64" y="212">o</text><text style="fill:#000" text-anchor="middle" x="72" y="212">u</text><text style="fill:#000" text-anchor="middle" x="96" y="212">r</text><text style="fill:#000" text-anchor="middle" x="104" y="212">o</text><text style="fill:#000" text-anchor="middle" x="112" y="212">d</text><text style="fill:#000" text-anchor="middle" x="120" y="212">e</text><text style="fill:#000" text-anchor="middle" x="144" y="212">m</text><text style="fill:#000" text-anchor="middle" x="152" y="212">y</text><text style="fill:#000" text-anchor="middle" x="176" y="212">h</text><text style="fill:#000" text-anchor="middle" x="184" y="212">o</text><text style="fill:#000" text-anchor="middle" x="192" y="212">r</text><text style="fill:#000" text-anchor="middle" x="200" y="212">s</text><text style="fill:#000" text-anchor="middle" x="208" y="212">e</text><text style="fill:#000" text-anchor="middle" x="232" y="212">t</text><text style="fill:#000" text-anchor="middle" x="240" y="212">o</text><text style="fill:#000" text-anchor="middle" x="264" y="212">b</text><text style="fill:#000" text-anchor="middle" x="272" y="212">e</text><text style="fill:#000" text-anchor="middle" x="280" y="212">r</text><text style="fill:#000" text-anchor="middle" x="288" y="212">l</text><text style="fill:#000" text-anchor="middle" x="296" y="212">i</text><text style="fill:#000" text-anchor="middle" x="304" y="212">n</text><text style="fill:#000" text-anchor="middle" x="328" y="212">i</text><text style="fill:#000" text-anchor="middle" x="336" y="212">n</text><text style="fill:#000" text-anchor="middle" x="360" y="212">t</text><text style="fill:#000" text-anchor="middle" x="368" y="212">h</text><text style="fill:#000" text-anchor="middle" x="376" y="212">e</text><text style="fill:#000" text-anchor="middle" x="400" y="212">w</text><text style="fill:#000" text-anchor="middle" x="408" y="212">i</text><text style="fill:#000" text-anchor="middle" x="416" y="212">n</text><text style="fill:#000" text-anchor="middle" x="424" y="212">t</text><text style="fill:#000" text-anchor="middle" x="432" y="212">e</text><text style="fill:#000" text-anchor="middle" x="440" y="212">r</text><text style="fill:#000" text-anchor="middle" x="0" y="244">1</text><text style="fill:#000" text-anchor="middle" x="32" y="244">1</text><text style="fill:#000" text-anchor="middle" x="56" y="244">0</text><text style="fill:#000" text-anchor="middle" x="96" y="244">1</text><text style="fill:#000" text-anchor="middle" x="144" y="244">1</text><text style="fill:#000" text-anchor="middle" x="176" y="244">1</text><text style="fill:#000" text-anchor="middle" x="232" y="244">1</text><text style="fill:#000" text-anchor="middle" x="264" y="244">1</text><text style="fill:#000" text-anchor="middle" x="328" y="244">0</text><text style="fill:#000" text-anchor="middle" x="360" y="244">0</text><text style="fill:#000" text-anchor="middle" x="400" y="244">0</text><text style="fill:#000" text-anchor="middle" x="0" y="292">2</text><text style="fill:#000" text-anchor="middle" x="32" y="292">0</text><text style="fill:#000" text-anchor="middle" x="56" y="292">1</text><text style="fill:#000" text-anchor="middle" x="96" y="292">1</text><text style="fill:#000" text-anchor="middle" x="144" y="292">1</text><text style="fill:#000" text-anchor="middle" x="176" y="292">1</text><text style="fill:#000" text-anchor="middle" x="232" y="292">1</text><text style="fill:#000" text-anchor="middle" x="264" y="292">1</text><text style="fill:#000" text-anchor="middle" x="328" y="292">1</text><text style="fill:#000" text-anchor="middle" x="360" y="292">1</text><text style="fill:#000" text-anchor="middle" x="400" y="292">1</text></g></g></svg>