<svg xmlns="http://www.w3.org/2000/svg" class="diagram" width="456" height="272" version="1.1"><g transform="translate(8 16)">
<path style="fill:none;stroke:#000;" d="M 56 80 L 56 144" />
<path style="fill:none;stroke:#000;" d="M 288 80 L 288 144" />
<polygon style="fill:#000" transform="rotate(90 288 144)" points="296,144 284,138.4 284,149.6" />
<polygon style="fill:#000" transform="rotate(90 56 144)" points="64,144 52,138.4 52,149.6" />
<g transform="translate(0)"><text style="fill:#000" text-anchor="middle" x="0" y="20">1</text><text style="fill:#000" text-anchor="middle" x="32" y="20">[</text><text style="fill:#000" text-anchor="middle" x="40" y="20">I</text><text style="fill:#000" text-anchor="middle" x="48" y="20">,</text><text style="fill:#000" text-anchor="middle" x="64" y="20">r</text><text style="fill:#000" text-anchor="middle" x="72" y="20">o</text><text style="fill:#000" text-anchor="middle" x="80" y="20">d</text><text style="fill:#000" text-anchor="middle" x="88" y="20">e</text><text style="fill:#000" text-anchor="middle" x="96" y="20">,</text><text style="fill:#000" text-anchor="middle" x="112" y="20">m</text><text style="fill:#000" text-anchor="middle" x="120" y="20">y</text><text style="fill:#000" text-anchor="middle" x="128" y="20">,</text><text style="fill:#000" text-anchor="middle" x="144" y="20">h</text><text style="fill:#000" text-anchor="middle" x="152" y="20">o</text><text style="fill:#000" text-anchor="middle" x="160" y="20">r</text><text style="fill:#000" text-anchor="middle" x="168" y="20">s</text><text style="fill:#000" text-anchor="middle" x="176" y="20">e</text><text style="fill:#000" text-anchor="middle" x="184" y="20">,</text><text style="fill:#000" text-anchor="middle" x="200" y="20">t</text><text style="fill:#000" text-anchor="middle" x="208" y="20">o</text><text style="fill:#000" text-anchor="middle" x="216" y="20">,</text><text style="fill:#000" text-anchor="middle" x="232" y="20">B</text><text style="fill:#000" text-anchor="middle" x="240" y="20">e</text><text style="fill:#000" text-anchor="middle" x="248" y="20">r</text><text style="fill:#000" text-anchor="middle" x="256" y="20">l</text><text style="fill:#000" text-anchor="middle" x="264" y="20">i</text><text style="fill:#000" text-anchor="middle" x="272" y="20">n</text><text style="fill:#000" text-anchor="middle" x="280" y="20">.</text><text style="fill:#000" text-anchor="middle" x="288" y="20">]</text><text style="fill:#000" text-anchor="middle" x="0" y="52">2</text><text style="fill:#000" text-anchor="middle" x="32" y="52">[</text><text style="fill:#000" text-anchor="middle" x="40" y="52">Y</text><text style="fill:#000" text-anchor="middle" x="48" y="52">o</text><text style="fill:#000" text-anchor="middle" x="56" y="52">u</text><text style="fill:#000" text-anchor="middle" x="64" y="52">,</text><text style="fill:#000" text-anchor="middle" x="80" y="52">r</text><text style="fill:#000" text-anchor="middle" x="88" y="52">o</text><text style="fill:#000" text-anchor="middle" x="96" y="52">d</text><text style="fill:#000" text-anchor="middle" x="104" y="52">e</text><text style="fill:#000" text-anchor="middle" x="112" y="52">,</text><text style="fill:#000" text-anchor="middle" x="128" y="52">m</text><text style="fill:#000" text-anchor="middle" x="136" y="52">y</text><text style="fill:#000" text-anchor="middle" x="144" y="52">,</text><text style="fill:#000" text-anchor="middle" x="160" y="52">h</text><text style="fill:#000" text-anchor="middle" x="168" y="52">o</text><text style="fill:#000" text-anchor="middle" x="176" y="52">r</text><text style="fill:#000" text-anchor="middle" x="184" y="52">s</text><text style="fill:#000" text-anchor="middle" x="192" y="52">e</text><text style="fill:#000" text-anchor="middle" x="200" y="52">,</text><text style="fill:#000" text-anchor="middle" x="216" y="52">t</text><text style="fill:#000" text-anchor="middle" x="224" y="52">o</text><text style="fill:#000" text-anchor="middle" x="232" y="52">,</text><text style="fill:#000" text-anchor="middle" x="248" y="52">B</text><text style="fill:#000" text-anchor="middle" x="256" y="52">e</text><text style="fill:#000" text-anchor="middle" x="264" y="52">r</text><text style="fill:#000" text-anchor="middle" x="272" y="52">l</text><text style="fill:#000" text-anchor="middle" x="280" y="52">i</text><text style="fill:#000" text-anchor="middle" x="288" y="52">n</text><text style="fill:#000" text-anchor="middle" x="296" y="52">,</text><text style="fill:#000" text-anchor="middle" x="312" y="52">i</text><text style="fill:#000" text-anchor="middle" x="320" y="52">n</text><text style="fill:#000" text-anchor="middle" x="328" y="52">,</text><text style="fill:#000" text-anchor="middle" x="344" y="52">t</text><text style="fill:#000" text-anchor="middle" x="352" y="52">h</text><text style="fill:#000" text-anchor="middle" x="360" y="52">e</text><text style="fill:#000" text-anchor="middle" x="368" y="52">,</text><text style="fill:#000" text-anchor="middle" x="384" y="52">w</text><text style="fill:#000" text-anchor="middle" x="392" y="52">i</text><text style="fill:#000" text-anchor="middle" x="400" y="52">n</text><text style="fill:#000" text-anchor="middle" x="408" y="52">t</text><text style="fill:#000" text-anchor="middle" x="416" y="52">e</text><text style="fill:#000" text-anchor="middle" x="424" y="52">r</text><text style="fill:#000" text-anchor="middle" x="432" y="52">.</text><text style="fill:#000" text-anchor="middle" x="440" y="52">]</text><text style="fill:#000" text-anchor="middle" x="104" y="100">P</text><text style="fill:#000" text-anchor="middle" x="112" y="100">r</text><text style="fill:#000" text-anchor="middle" x="120" y="100">e</text><text style="fill:#000" text-anchor="middle" x="128" y="100">p</text><text style="fill:#000" text-anchor="middle" x="136" y="100">r</text><text style="fill:#000" text-anchor="middle" x="144" y="100">o</text><text style="fill:#000" text-anchor="middle" x="152" y="100">c</text><text style="fill:#000" text-anchor="middle" x="160" y="100">e</text><text style="fill:#000" text-anchor="middle" x="168" y="100">s</text><text style="fill:#000" text-anchor="middle" x="176" y="100">s</text><text style="fill:#000" text-anchor="middle" x="184" y="100">i</text><text style="fill:#000" text-anchor="middle" x="192" y="100">n</text><text style="fill:#000" text-anchor="middle" x="200" y="100">g</text><text style="fill:#000" text-anchor="middle" x="0" y="180">1</text><text style="fill:#000" text-anchor="middle" x="32" y="180">[</text><text style="fill:#000" text-anchor="middle" x="40" y="180">i</text><text style="fill:#000" text-anchor="middle" x="48" y="180">,</text><text style="fill:#000" text-anchor="middle" x="64" y="180">r</text><text style="fill:#000" text-anchor="middle" x="72" y="180">o</text><text style="fill:#000" text-anchor="middle" x="80" y="180">d</text><text style="fill:#000" text-anchor="middle" x="88" y="180">e</text><text style="fill:#000" text-anchor="middle" x="96" y="180">,</text><text style="fill:#000" text-anchor="middle" x="112" y="180">m</text><text style="fill:#000" text-anchor="middle" x="120" y="180">y</text><text style="fill:#000" text-anchor="middle" x="128" y="180">,</text><text style="fill:#000" text-anchor="middle" x="144" y="180">h</text><text style="fill:#000" text-anchor="middle" x="152" y="180">o</text><text style="fill:#000" text-anchor="middle" x="160" y="180">r</text><text style="fill:#000" text-anchor="middle" x="168" y="180">s</text><text style="fill:#000" text-anchor="middle" x="176" y="180">e</text><text style="fill:#000" text-anchor="middle" x="184" y="180">,</text><text style="fill:#000" text-anchor="middle" x="200" y="180">t</text><text style="fill:#000" text-anchor="middle" x="208" y="180">o</text><text style="fill:#000" text-anchor="middle" x="216" y="180">,</text><text style="fill:#000" text-anchor="middle" x="232" y="180">b</text><text style="fill:#000" text-anchor="middle" x="240" y="180">e</text><text style="fill:#000" text-anchor="middle" x="248" y="180">r</text><text style="fill:#000" text-anchor="middle" x="256" y="180">l</text><text style="fill:#000" text-anchor="middle" x="264" y="180">i</text><text style="fill:#000" text-anchor="middle" x="272" y="180">n</text><text style="fill:#000" text-anchor="middle" x="280" y="180">]</text><text style="fill:#000" text-anchor="middle" x="0" y="228">2</text><text style="fill:#000" text-anchor="middle" x="32" y="228">[</text><text style="fill:#000" text-anchor="middle" x="40" y="228">y</text><text style="fill:#000" text-anchor="middle" x="48" y="228">o</text><text style="fill:#000" text-anchor="middle" x="56" y="228">u</text><text style="fill:#000" text-anchor="middle" x="64" y="228">,</text><text style="fill:#000" text-anchor="middle" x="80" y="228">r</text><text style="fill:#000" text-anchor="middle" x="88" y="228">o</text><text style="fill:#000" text-anchor="middle" x="96" y="228">d</text><text style="fill:#000" text-anchor="middle" x="104" y="228">e</text><text style="fill:#000" text-anchor="middle" x="112" y="228">,</text><text style="fill:#000" text-anchor="middle" x="128" y="228">m</text><text style="fill:#000" text-anchor="middle" x="136" y="228">y</text><text style="fill:#000" text-anchor="middle" x="144" y="228">,</text><text style="fill:#000" text-anchor="middle" x="160" y="228">h</text><text style="fill:#000" text-anchor="middle" x="168" y="228">o</text><text style="fill:#000" text-anchor="middle" x="176" y="228">r</text><text style="fill:#000" text-anchor="middle" x="184" y="228">s</text><text style="fill:#000" text-anchor="middle" x="192" y="228">e</text><text style="fill:#000" text-anchor="middle" x="200" y="228">,</text><text style="fill:#000" text-anchor="middle" x="216" y="228">t</text><text style="fill:#000" text-anchor="middle" x="224" y="228">o</text><text style="fill:#000" text-anchor="middle" x="232" y="228">,</text><text style="fill:#000" text-anchor="middle" x="248" y="228">b</text><text style="fill:#000" text-anchor="middle" x="256" y="228">e</text><text style="fill:#000" text-anchor="middle" x="264" y="228">r</text><text style="fill:#000" text-anchor="middle" x="272" y="228">l</text><text style="fill:#000" text-anchor="middle" x="280" y="228">i</text><text style="fill:#000" text-anchor="middle" x="288" y="228">n</text><text style="fill:#000" text-anchor="middle" x="296" y="228">,</text><text style="fill:#000" text-anchor="middle" x="312" y="228">i</text><text style="fill:#000" text-anchor="middle" x="320" y="228">n</text><text style="fill:#000" text-anchor="middle" x="328" y="228">,</text><text style="fill:#000" text-anchor="middle" x="344" y="228">t</text><text style="fill:#000" text-anchor="middle" x="352" y="228">h</text><text style="fill:#000" text-anchor="middle" x="360" y="228">e</text><text style="fill:#000" text-anchor="middle" x="368" y="228">,</text><text style="fill:#000" text-anchor="middle" x="384" y="228">w</text><text style="fill:#000" text-anchor="middle" x="392" y="228">i</text><text style="fill:#000" text-anchor="middle" x="400" y="228">n</text><text style="fill:#000" text-anchor="middle" x="408" y="228">t</text><text style="fill:#000" text-anchor="middle" x="416" y="228">e</text><text style="fill:#000" text-anchor="middle" x="424" y="228">r</text><text style="fill:#000" text-anchor="middle" x="432" y="228">]</text></g></g></svg>